<?xml version="1.0" standalone="no"?>
<!DOCTYPE svg PUBLIC "-//W3C//DTD SVG 20010904//EN"
 "http://www.w3.org/TR/2001/REC-SVG-20010904/DTD/svg10.dtd">
<svg version="1.0" xmlns="http://www.w3.org/2000/svg"
 width="700.000000pt" height="700.000000pt" viewBox="0 0 700.000000 700.000000"
 preserveAspectRatio="xMidYMid meet">
<metadata>
Created by potrace 1.14, written by Peter Selinger 2001-2017
</metadata>
<g transform="translate(0.000000,700.000000) scale(0.100000,-0.100000)"
fill="#000000" stroke="none">
<path d="M2633 5038 c-89 -140 -200 -397 -254 -587 -16 -57 -30 -106 -32 -107
-2 -2 -43 8 -92 21 l-90 25 -17 -22 c-34 -46 -131 -221 -172 -311 -23 -51 -45
-98 -49 -104 -6 -10 -78 -13 -301 -13 -271 0 -294 -1 -299 -17 -3 -10 -21 -65
-41 -122 -110 -316 -164 -684 -153 -1033 l6 -178 -80 0 -79 0 0 -60 0 -59 -77
-3 -78 -3 -3 -88 -3 -87 -74 0 -75 0 0 -85 0 -85 -150 0 -150 0 0 -120 0 -120
3130 0 3130 0 0 355 0 355 -40 0 c-22 0 -40 5 -40 10 0 41 -201 532 -323 792
l-56 118 -186 2 -186 3 -63 150 c-173 411 -361 736 -557 969 -109 129 -109
129 -155 86 -104 -101 -262 -351 -336 -535 -15 -36 -58 -102 -109 -166 -46
-58 -99 -126 -116 -152 -23 -34 -39 -47 -56 -47 -27 0 -103 -75 -176 -173 -24
-32 -45 -56 -46 -55 -1 2 -21 48 -44 102 -58 135 -129 275 -205 404 -219 367
-537 658 -930 851 -122 59 -302 131 -330 131 -9 0 -28 -19 -43 -42z m247 -158
c303 -300 502 -649 674 -1180 31 -95 55 -177 54 -182 -2 -5 -22 11 -45 34 -37
37 -47 59 -78 163 -126 416 -354 795 -671 1113 -62 61 -117 112 -122 112 -23
0 -173 -363 -217 -526 -15 -55 -29 -101 -30 -102 -6 -6 -75 19 -75 27 0 22 65
233 96 313 40 102 135 298 178 366 l27 43 46 -33 c26 -18 99 -85 163 -148z
m-55 125 c82 -31 245 -112 348 -173 189 -113 399 -293 545 -467 281 -335 524
-886 646 -1462 l24 -113 -147 0 -147 0 -28 58 c-71 146 -225 379 -354 535 -60
74 -67 87 -102 205 -182 601 -383 966 -716 1300 -78 78 -140 142 -138 142 2 0
33 -11 69 -25z m2432 -501 c203 -279 404 -674 567 -1111 43 -117 177 -522 190
-576 7 -27 6 -28 -30 -25 -30 2 -39 8 -45 28 -166 569 -414 1163 -619 1490
-68 107 -178 256 -220 295 l-31 30 -45 -50 c-69 -78 -160 -218 -211 -324 -25
-53 -47 -98 -49 -100 -2 -2 -10 2 -19 9 -8 7 -21 10 -29 7 -10 -4 -4 19 20 71
73 161 172 316 272 423 l57 62 61 -68 c34 -37 93 -109 131 -161z m-2967 -230
c512 -399 872 -818 1055 -1232 37 -85 95 -235 95 -248 0 -2 -17 -4 -39 -4 -37
0 -39 2 -56 48 -31 81 -143 299 -211 409 -135 218 -259 377 -449 572 -169 174
-458 421 -492 421 -15 0 -83 -108 -134 -212 -41 -84 -45 -88 -76 -88 -18 0
-33 5 -33 10 0 36 202 410 221 410 4 0 57 -39 119 -86z m61 40 c369 -119 714
-322 1023 -602 241 -218 490 -537 651 -834 l47 -88 -304 0 -303 0 -29 83 c-65
187 -207 452 -338 629 -188 254 -487 552 -783 778 -86 66 -91 70 -82 70 4 0
57 -16 118 -36z m2509 -270 c141 -119 347 -328 442 -444 42 -52 106 -142 142
-200 61 -97 272 -500 262 -500 -2 0 -25 34 -50 75 -26 41 -77 116 -115 167
-37 51 -93 136 -125 188 -83 138 -155 231 -300 389 -121 132 -282 283 -362
340 l-37 26 -54 -60 c-29 -33 -79 -94 -110 -135 -32 -41 -60 -79 -64 -84 -4
-4 -14 -4 -24 1 -14 8 -5 25 63 115 43 58 105 135 137 171 50 56 62 64 75 54
8 -7 62 -53 120 -103z m-3352 -190 c371 -175 717 -460 1029 -849 100 -124 283
-387 283 -406 0 -5 -15 -9 -34 -9 -33 0 -39 6 -122 128 -349 513 -693 835
-1109 1038 -194 95 -177 98 -220 -38 -88 -278 -121 -539 -111 -890 l6 -238
-34 0 -34 0 -8 78 c-11 121 3 461 25 607 11 72 31 184 46 250 25 112 94 336
116 378 13 23 21 20 167 -49z m778 22 c353 -178 599 -451 841 -936 l73 -145
-73 -3 -73 -3 -47 -94 -47 -95 -57 0 -58 1 -34 57 c-116 194 -322 453 -521
653 -242 244 -476 417 -735 545 l-130 64 386 0 387 0 88 -44z m2249 -166 c253
-170 548 -436 697 -630 54 -70 161 -225 192 -277 5 -10 -5 -13 -38 -13 l-45 0
-77 112 c-149 218 -258 344 -428 497 -179 160 -397 321 -435 321 -6 0 -50 -48
-98 -106 l-88 -106 -9 30 c-7 25 -3 37 24 77 18 26 62 78 97 116 75 79 55 81
208 -21z m205 -7 c228 -84 447 -214 595 -355 99 -94 238 -274 338 -437 37 -61
67 -114 67 -116 0 -3 -64 -5 -142 -5 l-143 1 -74 114 c-207 320 -538 639 -907
872 -28 18 157 -34 266 -74z m1460 -300 c116 -246 305 -702 325 -785 l7 -28
-114 0 -114 0 -49 100 -49 100 -81 0 -81 0 -24 83 c-28 97 -146 453 -183 550
l-26 67 174 0 174 0 41 -87z m-2280 -642 c0 -5 -15 -44 -33 -88 l-34 -78 -431
-3 c-292 -1 -432 1 -432 8 0 6 18 46 40 90 l40 80 425 0 c246 0 425 -4 425 -9z
m2320 -91 l50 -100 165 0 165 0 -2 -332 -3 -333 -286 -3 -286 -2 -362 307
-363 308 491 3 c316 1 491 6 491 12 0 7 -181 10 -512 10 l-513 0 0 -317 0
-318 -882 -3 -883 -2 0 335 0 335 176 0 175 0 24 53 c12 28 32 73 43 100 l21
47 1120 0 1121 0 50 -100z m-3880 -120 c0 -20 -7 -20 -680 -20 -673 0 -680 0
-680 20 0 20 7 20 680 20 673 0 680 0 680 -20z m1130 -315 l0 -335 -555 0
-555 0 0 298 c0 163 -3 314 -6 335 l-7 37 562 0 561 0 0 -335z m-1140 255 c0
-20 -7 -20 -675 -20 -668 0 -675 0 -675 20 0 20 7 20 675 20 668 0 675 0 675
-20z m3306 -286 c188 -159 343 -292 343 -297 1 -4 -158 -6 -351 -5 l-353 3 -3
298 c-2 225 1 298 9 295 7 -2 166 -134 355 -294z m-3306 221 l0 -25 -755 0
-755 0 0 25 0 25 755 0 755 0 0 -25z m0 -90 l0 -45 -755 0 -755 0 0 45 0 45
755 0 755 0 0 -45z m10 -90 l0 -25 -835 0 -835 0 0 25 0 25 835 0 835 0 0 -25z
m-10 -85 l0 -40 -830 0 -830 0 0 40 0 40 830 0 830 0 0 -40z m8 -157 l-3 -98
-985 0 -985 0 -3 98 -3 97 991 0 991 0 -3 -97z"/>
</g>
</svg>
